<svg xmlns="http://www.w3.org/2000/svg" viewBox="0 0 100 100" width="100px" height="100px" fill-rule="evenodd" clip-rule="evenodd" baseProfile="basic">
  <path fill="#ebf1f5" fill-rule="evenodd" stroke="#ebf1f5" stroke-linejoin="bevel" stroke-miterlimit="79.84" stroke-width=".667" d="M49.983,73.002c5.987-3.667,12.333-7,21-7v-37c-8.667,0-15.013,3.333-21,7l-5.987,16L49.983,73.002" clip-rule="evenodd" />
  <path fill="#b8b8b8" fill-rule="evenodd" d="M49.996,73.002 c-5.987-3.667-12.333-7-21-7v-37c8.667,0,15.013,3.333,21,7V73.002L49.996,73.002z" clip-rule="evenodd" />
  <path fill="#f15663" fill-rule="evenodd" d="M55.996,56.069V32.642 c2.48-1.213,5.107-2.227,8-2.88v23.72l-4-1.707L55.996,56.069z" clip-rule="evenodd" />
  <path fill="#048" fill-rule="evenodd" d="M-0.004,75.002v-4 h49.467l4.187-2.413c4.08-2.146,8.587-3.907,14-4.426l1.347-0.067v-33l-0.947,0.04c-1.053,0.106-2.067,0.267-3.053,0.466v21.88 c0,0.72-0.733,1.2-1.4,0.92l-3.347-1.44l-3.52,3.787c-0.627,0.653-1.733,0.213-1.733-0.68V37.696c0.653-0.373,1.32-0.733,2-1.08 v16.907l2.267-2.426c0.293-0.32,0.733-0.413,1.12-0.24l2.613,1.107v-19.88c-4.373,1.213-8.173,3.307-11.96,5.627 c-0.013,0.013-0.027,0.013-0.04,0.027v30.027c-0.453,0.253-0.893,0.507-1.32,0.76l-0.68,0.413v-31.2 c-0.013-0.013-0.027-0.013-0.04-0.027c-5.173-3.16-10.373-5.92-17.027-6.573l-0.933-0.04v32.973l1.347,0.093 c5.747,0.56,10.493,2.507,14.76,4.84h-10.4c-2.373-0.627-4.907-1-7.707-1c-1.107,0-2-0.893-2-2v-37c0-1.107,0.893-2,2-2 c6.933,0,12.453,2.013,17.347,4.587l3.653,2.107l3.653-2.107c4.893-2.573,10.413-4.587,17.347-4.587c1.107,0,2,0.893,2,2v37 c0,1.107-0.893,2-2,2c-8.093,0-14.053,3.093-19.96,6.707c-0.307,0.187-0.667,0.293-1.04,0.293H-0.004z M63.556,71.002h36.44v4H54.45 C57.396,73.309,60.33,71.896,63.556,71.002z" clip-rule="evenodd" />
</svg>